<?xml version="1.0" encoding="UTF-8"?>
<!DOCTYPE svg PUBLIC "-//W3C//DTD SVG 1.1//EN" "http://www.w3.org/Graphics/SVG/1.1/DTD/svg11.dtd">
<svg xmlns="http://www.w3.org/2000/svg" version="1.1" width="407px" height="80px" style="shape-rendering:geometricPrecision; text-rendering:geometricPrecision; image-rendering:optimizeQuality; fill-rule:evenodd; clip-rule:evenodd" xmlns:xlink="http://www.w3.org/1999/xlink">
<g><path style="opacity:0.906" fill="#91c3aa" d="M 49.5,21.5 C 44.1667,21.5 38.8333,21.5 33.5,21.5C 33.2965,19.6096 33.9632,18.1096 35.5,17C 38.5258,14.7284 41.6925,12.5618 45,10.5C 49.8895,9.35572 54.7228,8.02238 59.5,6.5C 63.1618,7.66323 66.8284,8.8299 70.5,10C 71.5323,13.1206 72.8656,16.1206 74.5,19C 73.5225,21.1431 71.8559,22.3098 69.5,22.5C 65.7057,21.4325 62.039,20.0991 58.5,18.5C 55.4225,19.3363 52.4225,20.3363 49.5,21.5 Z"/></g>
<g><path style="opacity:0.685" fill="#355d68" d="M 394.5,6.5 C 396.167,6.5 397.833,6.5 399.5,6.5C 399.5,10.1667 399.5,13.8333 399.5,17.5C 393.825,17.1403 393.158,15.1403 397.5,11.5C 396.224,10.3554 394.891,10.3554 393.5,11.5C 392.526,13.7427 392.192,16.076 392.5,18.5C 390.833,18.5 389.167,18.5 387.5,18.5C 388.91,15.0504 389.576,11.3837 389.5,7.5C 391.415,7.78448 393.081,7.45115 394.5,6.5 Z"/></g>
<g><path style="opacity:0.763" fill="#6aae9c" d="M 379.5,11.5 C 380.833,11.5 382.167,11.5 383.5,11.5C 383.666,16.1785 383.499,20.8452 383,25.5C 380.136,28.3264 377.969,27.8264 376.5,24C 377.657,22.0138 378.991,20.1804 380.5,18.5C 380.333,17.8333 380.167,17.1667 380,16.5C 377.619,17.435 375.119,17.7683 372.5,17.5C 372.665,20.8499 372.498,24.1832 372,27.5C 370.301,28.4061 368.467,28.7394 366.5,28.5C 366.5,26.5 366.5,24.5 366.5,22.5C 367.5,22.5 368.5,22.5 369.5,22.5C 369.183,19.4281 369.516,16.4281 370.5,13.5C 373.64,12.9106 376.64,12.2439 379.5,11.5 Z"/></g>
<g><path style="opacity:0.889" fill="#90c2aa" d="M 99.5,24.5 C 94.5,24.5 89.5,24.5 84.5,24.5C 85.537,21.1727 86.7037,17.8394 88,14.5C 90.76,12.297 93.76,11.9637 97,13.5C 98.9349,16.907 99.7682,20.5736 99.5,24.5 Z"/></g>
<g><path style="opacity:0.777" fill="#94c5ab" d="M 264.5,20.5 C 254.833,20.5 245.167,20.5 235.5,20.5C 235.791,19.3509 236.624,18.6842 238,18.5C 245.661,17.2053 253.328,17.2053 261,18.5C 262.681,18.6083 263.848,19.2749 264.5,20.5 Z"/></g>
<g><path style="opacity:0.908" fill="#94c4ab" d="M 33.5,21.5 C 38.8333,21.5 44.1667,21.5 49.5,21.5C 48.5,22.5 47.5,23.5 46.5,24.5C 41.1667,24.5 35.8333,24.5 30.5,24.5C 30.5,22.5 31.5,21.5 33.5,21.5 Z"/></g>
<g><path style="opacity:0.935" fill="#8ec2a9" d="M 204.5,24.5 C 199.833,24.5 195.167,24.5 190.5,24.5C 191.636,16.8471 195.803,14.5138 203,17.5C 203.977,19.74 204.477,22.0733 204.5,24.5 Z"/></g>
<g><path style="opacity:0.98" fill="#8cc1a9" d="M 235.5,20.5 C 245.167,20.5 254.833,20.5 264.5,20.5C 267.513,20.5809 269.513,21.9142 270.5,24.5C 256.833,24.5 243.167,24.5 229.5,24.5C 230.663,22.0178 232.663,20.6845 235.5,20.5 Z"/></g>
<g><path style="opacity:0.975" fill="#6aae9d" d="M 30.5,24.5 C 35.8333,24.5 41.1667,24.5 46.5,24.5C 39.1671,30.1514 39.8338,34.4848 48.5,37.5C 57.9968,37.6363 66.3301,40.6363 73.5,46.5C 74.7828,48.7301 75.7828,51.0634 76.5,53.5C 72.1667,53.5 67.8333,53.5 63.5,53.5C 60.7686,52.9729 58.1019,52.1396 55.5,51C 46.0178,52.1358 38.0178,49.3025 31.5,42.5C 30.395,38.9135 29.0617,35.4135 27.5,32C 28.6582,29.5238 29.6582,27.0238 30.5,24.5 Z"/></g>
<g><path style="opacity:0.982" fill="#6aae9c" d="M 84.5,24.5 C 89.5,24.5 94.5,24.5 99.5,24.5C 97.2938,34.0152 95.9605,43.6819 95.5,53.5C 91.1667,53.5 86.8333,53.5 82.5,53.5C 82.1932,43.6162 82.8598,33.9495 84.5,24.5 Z"/></g>
<g><path style="opacity:0.982" fill="#6aae9c" d="M 190.5,24.5 C 195.167,24.5 199.833,24.5 204.5,24.5C 203.8,28.7978 203.467,33.1311 203.5,37.5C 205.774,37.2849 207.941,36.6182 210,35.5C 213.451,36.8725 216.951,38.0391 220.5,39C 224.523,42.8837 226.19,47.717 225.5,53.5C 221.833,53.5 218.167,53.5 214.5,53.5C 214.5,51.5 214.5,49.5 214.5,47.5C 208.517,46.853 203.85,48.853 200.5,53.5C 195.5,53.5 190.5,53.5 185.5,53.5C 186.243,45.8337 187.076,38.167 188,30.5C 188.585,28.3386 189.418,26.3386 190.5,24.5 Z"/></g>
<g><path style="opacity:0.957" fill="#6aae9d" d="M 229.5,24.5 C 243.167,24.5 256.833,24.5 270.5,24.5C 271.822,24.33 272.989,24.6634 274,25.5C 278.037,30.8044 278.537,36.471 275.5,42.5C 274.029,43.3805 273.196,44.7139 273,46.5C 271.795,47.0712 270.628,47.7379 269.5,48.5C 271.297,49.6951 272.297,51.3618 272.5,53.5C 267.833,53.5 263.167,53.5 258.5,53.5C 253.5,53.5 248.5,53.5 243.5,53.5C 238.833,53.5 234.167,53.5 229.5,53.5C 230.56,46.3614 231.56,39.1947 232.5,32C 232.437,29.0514 231.437,26.5514 229.5,24.5 Z M 243.5,28.5 C 250.992,28.0584 258.325,28.8917 265.5,31C 267.878,36.685 266.212,40.685 260.5,43C 254.708,42.9074 249.208,43.7407 244,45.5C 243.501,39.8431 243.334,34.1764 243.5,28.5 Z"/></g>
<g><path style="opacity:0.976" fill="#6aae9d" d="M 318.5,53.5 C 314.5,53.5 310.5,53.5 306.5,53.5C 307.598,46.8714 304.931,44.7047 298.5,47C 296.75,49.0183 295.416,51.185 294.5,53.5C 289.833,53.5 285.167,53.5 280.5,53.5C 280.457,50.0901 280.957,46.7568 282,43.5C 288.521,30.8171 298.688,26.8171 312.5,31.5C 317.796,35.221 319.629,40.221 318,46.5C 314.667,47.8333 314.667,49.1667 318,50.5C 318.483,51.448 318.649,52.448 318.5,53.5 Z"/></g>
<g><path style="opacity:0.964" fill="#6aae9d" d="M 179.5,53.5 C 169.833,53.5 160.167,53.5 150.5,53.5C 146.6,44.5338 148.933,37.5338 157.5,32.5C 164.899,29.3596 171.899,30.0263 178.5,34.5C 179.562,37.1029 179.728,39.7695 179,42.5C 173.594,42.6866 168.094,42.8533 162.5,43C 161.687,44.3139 160.687,45.4805 159.5,46.5C 165.808,48.1604 172.141,49.6604 178.5,51C 179.252,51.6708 179.586,52.5041 179.5,53.5 Z"/></g>
<g><path style="opacity:0.975" fill="#6aae9c" d="M 145.5,53.5 C 141.5,53.5 137.5,53.5 133.5,53.5C 135.568,44.741 132.068,41.4077 123,43.5C 121.337,45.3284 119.504,46.9951 117.5,48.5C 116.691,50.0709 116.357,51.7376 116.5,53.5C 112.167,53.5 107.833,53.5 103.5,53.5C 107.62,35.6081 118.62,29.1081 136.5,34C 138.51,36.5172 141.177,38.0172 144.5,38.5C 145.448,43.4351 145.781,48.4351 145.5,53.5 Z"/></g>
<g><path style="opacity:0.976" fill="#69ae9c" d="M 353.5,53.5 C 346.5,53.5 339.5,53.5 332.5,53.5C 330.452,49.6273 327.285,46.9606 323,45.5C 321.597,37.3949 325.097,33.3949 333.5,33.5C 336.251,33.8543 338.917,34.521 341.5,35.5C 343.528,37.8379 345.528,40.1712 347.5,42.5C 349.976,39.5226 352.643,36.6892 355.5,34C 359.257,32.7782 361.924,33.9449 363.5,37.5C 359.922,42.8646 356.589,48.1979 353.5,53.5 Z"/></g>
<g><path style="opacity:0.947" fill="#355d67" d="M 63.5,53.5 C 67.8333,53.5 72.1667,53.5 76.5,53.5C 76.5,55.1667 76.5,56.8333 76.5,58.5C 73.1667,58.5 69.8333,58.5 66.5,58.5C 66.2785,56.3364 65.2785,54.6697 63.5,53.5 Z"/></g>
<g><path style="opacity:0.863" fill="#345c67" d="M 82.5,53.5 C 86.8333,53.5 91.1667,53.5 95.5,53.5C 95.9227,55.7812 95.256,57.4479 93.5,58.5C 89.8333,58.5 86.1667,58.5 82.5,58.5C 82.5,56.8333 82.5,55.1667 82.5,53.5 Z"/></g>
<g><path style="opacity:0.947" fill="#345c68" d="M 103.5,53.5 C 107.833,53.5 112.167,53.5 116.5,53.5C 115.699,55.0418 115.366,56.7085 115.5,58.5C 111.5,58.5 107.5,58.5 103.5,58.5C 103.5,56.8333 103.5,55.1667 103.5,53.5 Z"/></g>
<g><path style="opacity:0.941" fill="#345d67" d="M 133.5,53.5 C 137.5,53.5 141.5,53.5 145.5,53.5C 146.301,55.0418 146.634,56.7085 146.5,58.5C 142.167,58.5 137.833,58.5 133.5,58.5C 133.5,56.8333 133.5,55.1667 133.5,53.5 Z"/></g>
<g><path style="opacity:0.949" fill="#355c67" d="M 150.5,53.5 C 160.167,53.5 169.833,53.5 179.5,53.5C 182.297,53.9666 183.631,55.6333 183.5,58.5C 177.5,58.5 171.5,58.5 165.5,58.5C 162.15,58.665 158.817,58.4983 155.5,58C 153.93,56.3217 152.263,54.8217 150.5,53.5 Z"/></g>
<g><path style="opacity:0.912" fill="#345c67" d="M 185.5,53.5 C 190.5,53.5 195.5,53.5 200.5,53.5C 200.784,55.4147 200.451,57.0813 199.5,58.5C 194.833,58.5 190.167,58.5 185.5,58.5C 185.5,56.8333 185.5,55.1667 185.5,53.5 Z"/></g>
<g><path style="opacity:0.903" fill="#345c67" d="M 214.5,53.5 C 218.167,53.5 221.833,53.5 225.5,53.5C 225.634,55.2915 225.301,56.9582 224.5,58.5C 221.167,58.5 217.833,58.5 214.5,58.5C 214.5,56.8333 214.5,55.1667 214.5,53.5 Z"/></g>
<g><path style="opacity:0.892" fill="#355d67" d="M 229.5,53.5 C 234.167,53.5 238.833,53.5 243.5,53.5C 243.5,55.1667 243.5,56.8333 243.5,58.5C 238.5,58.5 233.5,58.5 228.5,58.5C 228.629,56.7839 228.962,55.1172 229.5,53.5 Z"/></g>
<g><path style="opacity:0.867" fill="#345c67" d="M 258.5,53.5 C 263.167,53.5 267.833,53.5 272.5,53.5C 273.451,54.9187 273.784,56.5853 273.5,58.5C 270.5,58.5 267.5,58.5 264.5,58.5C 263.086,56.082 261.086,54.4153 258.5,53.5 Z"/></g>
<g><path style="opacity:0.976" fill="#355d68" d="M 280.5,53.5 C 285.167,53.5 289.833,53.5 294.5,53.5C 294.5,55.1667 294.5,56.8333 294.5,58.5C 289.833,58.5 285.167,58.5 280.5,58.5C 280.5,56.8333 280.5,55.1667 280.5,53.5 Z"/></g>
<g><path style="opacity:0.968" fill="#345c68" d="M 306.5,53.5 C 310.5,53.5 314.5,53.5 318.5,53.5C 318.5,55.1667 318.5,56.8333 318.5,58.5C 314.833,58.5 311.167,58.5 307.5,58.5C 307.634,56.7085 307.301,55.0418 306.5,53.5 Z"/></g>
<g><path style="opacity:0.972" fill="#345d68" d="M 332.5,53.5 C 339.5,53.5 346.5,53.5 353.5,53.5C 356.297,53.9666 357.631,55.6333 357.5,58.5C 349.167,58.5 340.833,58.5 332.5,58.5C 336.299,57.0391 336.299,55.3724 332.5,53.5 Z"/></g>
<g><path style="opacity:0.98" fill="#6aaf9c" d="M 66.5,58.5 C 69.8333,58.5 73.1667,58.5 76.5,58.5C 76.5,59.5 76.5,60.5 76.5,61.5C 73.1667,61.5 69.8333,61.5 66.5,61.5C 66.5,60.5 66.5,59.5 66.5,58.5 Z"/></g>
<g><path style="opacity:0.97" fill="#69af9d" d="M 82.5,58.5 C 86.1667,58.5 89.8333,58.5 93.5,58.5C 93.5,59.5 93.5,60.5 93.5,61.5C 89.8333,61.5 86.1667,61.5 82.5,61.5C 82.5,60.5 82.5,59.5 82.5,58.5 Z"/></g>
<g><path style="opacity:0.969" fill="#6aae9c" d="M 103.5,58.5 C 107.5,58.5 111.5,58.5 115.5,58.5C 116.404,59.209 116.737,60.209 116.5,61.5C 112.167,61.5 107.833,61.5 103.5,61.5C 103.5,60.5 103.5,59.5 103.5,58.5 Z"/></g>
<g><path style="opacity:1" fill="#6aae9c" d="M 133.5,58.5 C 137.833,58.5 142.167,58.5 146.5,58.5C 146.5,59.5 146.5,60.5 146.5,61.5C 142.167,61.5 137.833,61.5 133.5,61.5C 133.5,60.5 133.5,59.5 133.5,58.5 Z"/></g>
<g><path style="opacity:1" fill="#6aae9d" d="M 165.5,58.5 C 171.5,58.5 177.5,58.5 183.5,58.5C 184.167,59.8333 184.833,59.8333 185.5,58.5C 190.167,58.5 194.833,58.5 199.5,58.5C 199.5,59.5 199.5,60.5 199.5,61.5C 195.167,61.5 190.833,61.5 186.5,61.5C 186.167,61.5 185.833,61.5 185.5,61.5C 180.5,61.5 175.5,61.5 170.5,61.5C 168.961,60.2329 167.294,59.2329 165.5,58.5 Z"/></g>
<g><path style="opacity:0.986" fill="#6aaf9c" d="M 214.5,58.5 C 217.833,58.5 221.167,58.5 224.5,58.5C 224.5,59.5 224.5,60.5 224.5,61.5C 221.167,61.5 217.833,61.5 214.5,61.5C 214.5,60.5 214.5,59.5 214.5,58.5 Z"/></g>
<g><path style="opacity:0.974" fill="#6aae9c" d="M 228.5,58.5 C 233.5,58.5 238.5,58.5 243.5,58.5C 242.449,59.2223 241.782,60.2223 241.5,61.5C 237.167,61.5 232.833,61.5 228.5,61.5C 228.5,60.5 228.5,59.5 228.5,58.5 Z"/></g>
<g><path style="opacity:0.989" fill="#6aaf9d" d="M 264.5,58.5 C 267.5,58.5 270.5,58.5 273.5,58.5C 273.5,59.5 273.5,60.5 273.5,61.5C 269.833,61.5 266.167,61.5 262.5,61.5C 262.782,60.2223 263.449,59.2223 264.5,58.5 Z"/></g>
<g><path style="opacity:0.97" fill="#6aaf9d" d="M 280.5,58.5 C 285.167,58.5 289.833,58.5 294.5,58.5C 295.404,59.209 295.737,60.209 295.5,61.5C 290.5,61.5 285.5,61.5 280.5,61.5C 280.5,60.5 280.5,59.5 280.5,58.5 Z"/></g>
<g><path style="opacity:0.993" fill="#6aae9c" d="M 307.5,58.5 C 311.167,58.5 314.833,58.5 318.5,58.5C 318.5,59.5 318.5,60.5 318.5,61.5C 314.5,61.5 310.5,61.5 306.5,61.5C 306.263,60.209 306.596,59.209 307.5,58.5 Z"/></g>
<g><path style="opacity:0.958" fill="#69ae9d" d="M 332.5,58.5 C 340.833,58.5 349.167,58.5 357.5,58.5C 359.5,58.5 360.5,59.5 360.5,61.5C 349.833,61.5 339.167,61.5 328.5,61.5C 329.035,59.5544 330.368,58.5544 332.5,58.5 Z"/></g>
<g><path style="opacity:0.898" fill="#345c68" d="M 66.5,61.5 C 69.8333,61.5 73.1667,61.5 76.5,61.5C 74.8888,72.9204 68.2222,78.587 56.5,78.5C 51.4938,78.3288 46.8271,76.9955 42.5,74.5C 41.3405,72.9275 40.3405,71.2608 39.5,69.5C 40.5471,67.9436 41.2137,66.2769 41.5,64.5C 46.7954,64.7816 51.9621,65.7816 57,67.5C 58.366,67.2935 59.6994,66.9602 61,66.5C 62.7289,64.5989 64.5623,62.9322 66.5,61.5 Z"/></g>
<g><path style="opacity:0.92" fill="#355d68" d="M 82.5,61.5 C 86.1667,61.5 89.8333,61.5 93.5,61.5C 94.3123,63.7426 94.9789,66.0759 95.5,68.5C 95.1667,69.8333 94.8333,71.1667 94.5,72.5C 92.1324,74.223 89.4658,74.8897 86.5,74.5C 84.4176,70.4443 83.0843,66.1109 82.5,61.5 Z"/></g>
<g><path style="opacity:0.934" fill="#345c67" d="M 103.5,61.5 C 107.833,61.5 112.167,61.5 116.5,61.5C 117.622,62.9473 119.122,63.9473 121,64.5C 125.235,63.3568 129.401,62.3568 133.5,61.5C 137.833,61.5 142.167,61.5 146.5,61.5C 146.666,65.8461 146.499,70.1794 146,74.5C 141.175,76.4875 137.175,75.4875 134,71.5C 126.797,75.5183 119.13,76.5183 111,74.5C 106.199,71.5447 103.699,67.2114 103.5,61.5 Z"/></g>
<g><path style="opacity:0.921" fill="#345d68" d="M 170.5,61.5 C 175.5,61.5 180.5,61.5 185.5,61.5C 183.797,64.6507 182.464,67.984 181.5,71.5C 179.048,71.6236 177.048,72.6236 175.5,74.5C 169.371,76.0442 163.371,75.7108 157.5,73.5C 154.663,70.5744 154.33,67.5744 156.5,64.5C 160.779,63.726 165.113,63.226 169.5,63C 170.056,62.6174 170.389,62.1174 170.5,61.5 Z"/></g>
<g><path style="opacity:0.91" fill="#345c67" d="M 186.5,61.5 C 190.833,61.5 195.167,61.5 199.5,61.5C 200.406,70.6261 196.573,73.6261 188,70.5C 186.851,67.6074 186.351,64.6074 186.5,61.5 Z"/></g>
<g><path style="opacity:0.882" fill="#345d68" d="M 214.5,61.5 C 217.833,61.5 221.167,61.5 224.5,61.5C 225.561,67.2049 223.394,70.8715 218,72.5C 217.127,72.2645 216.293,71.9312 215.5,71.5C 214.63,69.5934 213.63,67.7601 212.5,66C 213.707,64.6998 214.374,63.1998 214.5,61.5 Z"/></g>
<g><path style="opacity:0.898" fill="#345c67" d="M 228.5,61.5 C 232.833,61.5 237.167,61.5 241.5,61.5C 241.192,63.924 241.526,66.2573 242.5,68.5C 243.308,68.1924 243.975,67.6924 244.5,67C 248.541,66.8265 252.541,66.3265 256.5,65.5C 259.155,65.0248 261.155,63.6915 262.5,61.5C 266.167,61.5 269.833,61.5 273.5,61.5C 273.435,63.6957 272.768,65.6957 271.5,67.5C 269.807,70.1897 267.473,72.1897 264.5,73.5C 257.964,75.5346 251.297,76.368 244.5,76C 242.459,74.7582 241.293,72.9249 241,70.5C 239.991,72.0249 239.491,73.6916 239.5,75.5C 236.813,75.6641 234.146,75.4974 231.5,75C 230.692,74.6924 230.025,74.1924 229.5,73.5C 228.567,69.5705 228.234,65.5705 228.5,61.5 Z"/></g>
<g><path style="opacity:0.938" fill="#345d68" d="M 280.5,61.5 C 285.5,61.5 290.5,61.5 295.5,61.5C 299.2,62.758 302.866,62.758 306.5,61.5C 310.5,61.5 314.5,61.5 318.5,61.5C 318.006,65.3227 316.339,68.4894 313.5,71C 310.437,71.5743 307.771,72.9076 305.5,75C 293.067,77.7874 284.734,73.2874 280.5,61.5 Z"/></g>
<g><path style="opacity:0.922" fill="#345c68" d="M 328.5,61.5 C 339.167,61.5 349.833,61.5 360.5,61.5C 363.401,69.2789 360.734,73.9456 352.5,75.5C 347.697,72.8483 343.864,69.1816 341,64.5C 338.222,69.276 334.222,72.6094 329,74.5C 327.2,73.6216 325.367,72.955 323.5,72.5C 322.231,67.2717 323.898,63.6051 328.5,61.5 Z"/></g>
</svg>
